HIERARCHY
ROOT Hips
{
	OFFSET 0.00000 0.00000 0.00000
	CHANNELS 6 Xposition Yposition Zposition Zrotation Yrotation Xrotation 
	JOINT LHipJoint
	{
		OFFSET 0 0 0
		CHANNELS 3 Zrotation Yrotation Xrotation
		JOINT LeftUpLeg
		{
			OFFSET 1.37590 -1.78394 0.89329
			CHANNELS 3 Zrotation Yrotation Xrotation
			JOINT LeftLeg
			{
				OFFSET 2.47928 -6.81178 0.00000
				CHANNELS 3 Zrotation Yrotation Xrotation
				JOINT LeftFoot
				{
					OFFSET 2.63345 -7.23535 0.00000
					CHANNELS 3 Zrotation Yrotation Xrotation
					JOINT LeftToeBase
					{
						OFFSET 0.23938 -0.65768 2.27012
						CHANNELS 3 Zrotation Yrotation Xrotation
						End Site
						{
							OFFSET 0.00000 -0.00000 1.18363
						}
					}
				}
			}
		}
	}
	JOINT RHipJoint
	{
		OFFSET 0 0 0
		CHANNELS 3 Zrotation Yrotation Xrotation
		JOINT RightUpLeg
		{
			OFFSET -1.33617 -1.78394 0.89329
			CHANNELS 3 Zrotation Yrotation Xrotation
			JOINT RightLeg
			{
				OFFSET -2.56922 -7.05888 0.00000
				CHANNELS 3 Zrotation Yrotation Xrotation
				JOINT RightFoot
				{
					OFFSET -2.56568 -7.04915 0.00000
					CHANNELS 3 Zrotation Yrotation Xrotation
					JOINT RightToeBase
					{
						OFFSET -0.27533 -0.75646 2.18105
						CHANNELS 3 Zrotation Yrotation Xrotation
						End Site
						{
							OFFSET -0.00000 -0.00000 1.15233
						}
					}
				}
			}
		}
	}
	JOINT LowerBack
	{
		OFFSET 0 0 0
		CHANNELS 3 Zrotation Yrotation Xrotation
		JOINT Spine
		{
			OFFSET 0.06190 2.15152 -0.00935
			CHANNELS 3 Zrotation Yrotation Xrotation
			JOINT Spine1
			{
				OFFSET 0.06334 2.15332 0.00872
				CHANNELS 3 Zrotation Yrotation Xrotation
				JOINT Neck
				{
					OFFSET 0 0 0
					CHANNELS 3 Zrotation Yrotation Xrotation
					JOINT Neck1
					{
						OFFSET -0.04202 1.66908 0.23524
						CHANNELS 3 Zrotation Yrotation Xrotation
						JOINT Head
						{
							OFFSET 0.07510 1.69357 -0.24440
							CHANNELS 3 Zrotation Yrotation Xrotation
							End Site
							{
								OFFSET 0.02556 1.71719 -0.11000
							}
						}
					}
				}
				JOINT LeftShoulder
				{
					OFFSET 0 0 0
					CHANNELS 3 Zrotation Yrotation Xrotation
					JOINT LeftArm
					{
						OFFSET 3.67168 1.26306 -0.41342
						CHANNELS 3 Zrotation Yrotation Xrotation
						JOINT LeftForeArm
						{
							OFFSET 4.68510 -0.00000 -0.00000
							CHANNELS 3 Zrotation Yrotation Xrotation
							JOINT LeftHand
							{
								OFFSET 3.39626 -0.00000 -0.00000
								CHANNELS 3 Zrotation Yrotation Xrotation
								JOINT LeftFingerBase
								{
									OFFSET 0 0 0
									CHANNELS 3 Zrotation Yrotation Xrotation
									JOINT LeftHandIndex1
									{
										OFFSET 0.48608 -0.00000 -0.00000
										CHANNELS 3 Zrotation Yrotation Xrotation
										End Site
										{
											OFFSET 0.39189 -0.00000 -0.00000
										}
									}
								}
								JOINT LThumb
								{
									OFFSET 0 0 0
									CHANNELS 3 Zrotation Yrotation Xrotation
									End Site
									{
										OFFSET 0.39787 -0.00000 0.39787
									}
								}
							}
						}
					}
				}
				JOINT RightShoulder
				{
					OFFSET 0 0 0
					CHANNELS 3 Zrotation Yrotation Xrotation
					JOINT RightArm
					{
						OFFSET -3.04136 1.42992 -0.76390
						CHANNELS 3 Zrotation Yrotation Xrotation
						JOINT RightForeArm
						{
							OFFSET -5.55576 -0.00000 -0.00000
							CHANNELS 3 Zrotation Yrotation Xrotation
							JOINT RightHand
							{
								OFFSET -3.32774 -0.00000 -0.00000
								CHANNELS 3 Zrotation Yrotation Xrotation
								JOINT RightFingerBase
								{
									OFFSET 0 0 0
									CHANNELS 3 Zrotation Yrotation Xrotation
									JOINT RightHandIndex1
									{
										OFFSET -0.50763 -0.00000 -0.00000
										CHANNELS 3 Zrotation Yrotation Xrotation
										End Site
										{
											OFFSET -0.40926 -0.00000 -0.00000
										}
									}
								}
								JOINT RThumb
								{
									OFFSET 0 0 0
									CHANNELS 3 Zrotation Yrotation Xrotation
									End Site
									{
										OFFSET -0.41551 -0.00000 0.41551
									}
								}
							}
						}
					}
				}
			}
		}
	}
}
MOTION
Frames: 8
Frame Time: .0083333
33.5359 17.5776 6.5919 0 0 0 0 0 0 -21 0 0 0 0 0 0 0 0 0 0 0 0 0 0 21 0 0 0 0 0 0 0 0 0 0 0 0 0 0 0 0 0 0 0 0 0 0 -16 0 0 21 0 0 11 0 0 0 -8 0 0 0 0 0 0 0 0 0 0 0 0 0 0 0 0 0 0 0 0 8 0 0 0 0 0 0 0 0 0 0 0 0 0 0 0 0 0
33.5359 17.5776 6.5919 165.3020 -86.3221 -159.3100 0.0000 0.0000 0.0000 -24.5724 -4.2387 -2.7441 0.6818 5.2793 14.7069 0.4388 3.1804 -14.0855 0.5024 -4.5441 -12.6126 0.0000 0.0000 0.0000 12.9307 3.6728 -36.0673 -2.1411 -9.1540 26.2782 0.6630 -14.6010 -8.8746 -0.0487 -1.4240 3.9162 -1.0264 -0.3591 0.6981 2.1542 -0.4898 -0.2107 2.7909 -0.2433 -0.5799 -4.8321 -3.3859 -8.9159 5.4000 -4.5796 10.0418 2.1437 -2.1284 4.7064 0.0000 0.0000 0.0000 -94.8326 -29.5894 27.2165 39.0551 -47.5000 -17.7394 -0.0000 0.0000 -43.9448 19.1425 25.9659 8.6416 -7.1250 0.0000 -0.0000 -11.7962 56.8600 -3.4617 0.0000 0.0000 0.0000 70.3850 32.2819 41.8629 -49.3966 52.7492 -25.6931 0.0000 0.0000 2.8023 -14.0609 -15.4937 3.8277 7.1250 -0.0000 -0.0000 12.6940 -45.5367 -0.1709
33.4447 17.5728 6.5817 180.2900 -85.9501 -173.6670 0.0000 0.0000 0.0000 -23.1861 -4.1662 -3.1977 0.6908 5.3134 14.8048 0.4597 3.4601 -14.5449 0.4756 -4.4229 -12.2697 0.0000 0.0000 0.0000 13.6348 5.6582 -36.0482 -1.7733 -8.3770 23.8653 0.6958 -14.9606 -9.1615 -0.0162 -0.8207 2.2557 -0.2419 -0.1135 0.8600 2.4625 -0.1538 -0.4924 2.6642 -0.0762 -0.9793 -4.5384 -3.5645 -9.7415 5.3510 -4.8355 10.3474 2.0484 -2.2297 4.9443 -0.0000 0.0000 0.0000 -95.0949 -29.3636 28.9995 37.9398 -46.8008 -16.9217 -0.0000 0.0000 -44.3456 19.5893 26.6100 9.0568 -7.1250 0.0000 -0.0000 -11.6577 57.6004 -3.6294 -0.0000 0.0000 0.0000 70.4261 31.5541 42.0974 -48.3100 52.2907 -24.8308 0.0000 0.0000 3.2813 -12.9686 -15.0202 3.4155 7.1250 -0.0000 -0.0000 13.5420 -44.9354 0.0220
33.3214 17.5608 6.5790 178.8990 -85.9606 -172.1310 0.0000 0.0000 0.0000 -23.3491 -4.0359 -2.8548 0.6794 5.2702 14.6809 0.4941 3.3241 -14.9110 0.4550 -4.3271 -11.9989 0.0000 0.0000 0.0000 13.1841 6.3311 -35.6376 -1.4395 -7.5852 21.4611 0.6597 -14.6865 -9.4477 -0.0133 -0.7437 2.0439 -0.4212 -0.2410 0.3830 2.5941 -0.3310 -0.5357 2.9011 -0.1657 -0.7459 -4.8500 -3.5293 -8.8442 5.7044 -4.7994 9.7929 2.2269 -2.2218 4.6376 -0.0000 -0.0000 0.0000 -95.3334 -28.8597 30.3217 37.0339 -46.2110 -16.2645 -0.0000 0.0000 -44.4937 19.7774 27.6179 9.4636 -7.1250 0.0000 -0.0000 -12.0069 58.6489 -4.0440 -0.0000 -0.0000 0.0000 70.5414 30.6221 42.7820 -47.4675 51.9216 -24.1659 0.0000 0.0000 3.8561 -11.9373 -14.5836 3.0471 7.1250 -0.0000 -0.0000 14.3370 -44.3856 0.2222
33.1902 17.5469 6.5740 176.5200 -86.0741 -169.6800 0.0000 0.0000 0.0000 -23.5887 -3.9062 -2.4012 0.6678 5.2262 14.5548 0.5321 3.1256 -15.2742 0.4542 -4.3235 -11.9886 0.0000 0.0000 0.0000 12.6497 6.8759 -35.1390 -1.1700 -6.8660 19.3189 0.5961 -14.1681 -9.7837 -0.0035 -0.3812 1.0473 -0.5835 -0.3093 0.3856 2.6235 -0.4231 -0.5285 3.0238 -0.2109 -0.7339 -4.7828 -3.6501 -9.1716 5.7602 -4.9617 9.7592 2.2165 -2.2895 4.6907 -0.0000 0.0000 0.0000 -95.4472 -28.3502 32.3389 36.4683 -45.8326 -15.8575 -0.0000 0.0000 -44.6297 19.8228 28.1474 9.6508 -7.1250 0.0000 -0.0000 -12.2632 59.1863 -4.2904 -0.0000 0.0000 0.0000 70.7489 29.6038 42.9000 -46.9930 51.7083 -23.7929 0.0000 0.0000 4.2222 -11.7761 -14.5325 2.9946 7.1250 -0.0000 -0.0000 14.4655 -44.3171 0.2492
33.0655 17.5339 6.5680 176.5910 -86.0961 -169.5900 0.0000 0.0000 0.0000 -23.5852 -3.7811 -2.0924 0.6603 5.1971 14.4716 0.5699 2.9820 -15.6562 0.4418 -4.2651 -11.8236 0.0000 0.0000 0.0000 12.2244 7.7534 -34.6965 -0.9315 -6.1482 17.2151 0.5691 -13.9919 -10.0925 -0.0000 -0.0284 0.0782 -0.6165 -0.3497 0.2301 2.7094 -0.4800 -0.5056 3.1302 -0.2409 -0.6189 -4.7750 -3.7460 -9.3483 5.8794 -5.0912 9.6190 2.2403 -2.3430 4.6873 -0.0000 -0.0000 0.0000 -95.5628 -27.9259 34.2816 35.9185 -45.4570 -15.4644 -0.0000 0.0000 -44.9151 19.9641 28.8171 9.9317 -7.1250 0.0000 -0.0000 -12.5122 59.8843 -4.5886 -0.0000 -0.0000 0.0000 70.9118 28.6844 43.0500 -46.4348 51.4523 -23.3556 0.0000 0.0000 4.5732 -11.3158 -14.3357 2.8365 7.1250 -0.0000 -0.0000 14.8165 -44.0725 0.3471
32.9373 17.5199 6.5612 175.6340 -86.1756 -168.5190 0.0000 0.0000 0.0000 -23.6679 -3.6463 -1.7196 0.6529 5.1685 14.3899 0.6110 2.7739 -16.0317 0.4288 -4.2025 -11.6470 0.0000 0.0000 0.0000 11.7248 8.5230 -34.2453 -0.7400 -5.4954 15.3271 0.5427 -13.8244 -10.3911 -0.0024 0.3159 -0.8678 -0.6960 -0.4115 0.0724 2.7713 -0.5660 -0.4318 3.2377 -0.2861 -0.4485 -4.7658 -3.8471 -9.5980 5.9921 -5.2237 9.4816 2.2603 -2.3969 4.6970 -0.0000 0.0000 0.0000 -95.6188 -27.4731 36.3540 35.5571 -45.2059 -15.2074 -0.0000 0.0000 -45.2095 20.0359 29.4258 10.1577 -7.1250 0.0000 -0.0000 -12.8171 60.5040 -4.8923 -0.0000 0.0000 0.0000 71.1017 27.7203 43.0812 -46.0397 51.2678 -23.0470 0.0000 0.0000 4.8107 -11.0077 -14.2541 2.7421 7.1250 -0.0000 -0.0000 15.0654 -43.9587 0.3966
32.8081 17.5053 6.5533 174.8250 -86.2745 -167.6070 0.0000 0.0000 0.0000 -23.7242 -3.5157 -1.3444 0.6483 5.1508 14.3391 0.6541 2.5460 -16.4100 0.4143 -4.1316 -11.4472 0.0000 0.0000 0.0000 11.2653 9.2282 -33.8664 -0.5961 -4.9429 13.7457 0.5176 -13.6745 -10.6906 -0.0109 0.6745 -1.8537 -0.7591 -0.4706 -0.0286 2.8330 -0.6479 -0.3526 3.3358 -0.3294 -0.3042 -4.7360 -3.9571 -9.9518 6.0725 -5.3658 9.3944 2.2641 -2.4542 4.7388 -0.0000 -0.0000 0.0000 -95.6210 -26.9494 38.5540 35.3931 -45.0908 -15.0911 -0.0000 0.0000 -45.5215 20.0907 29.9407 10.3457 -7.1250 0.0000 -0.0000 -13.0948 61.0254 -5.1630 -0.0000 -0.0000 0.0000 71.3101 26.6676 42.9944 -45.8242 51.1659 -22.8790 0.0000 0.0000 4.8916 -10.8301 -14.3126 2.7077 7.1250 -0.0000 -0.0000 15.2404 -43.9963 0.3870
